<?xml version="1.0" encoding="UTF-8"?>
<svg width="66px" height="48px" viewBox="0 0 66 48" version="1.1" xmlns="http://www.w3.org/2000/svg" xmlns:xlink="http://www.w3.org/1999/xlink">
    <title>BD97E8A3-A7DD-4497-A1A6-B9A65F8C75C2@1x</title>
    <defs>
        <polygon id="path-1" points="0.00950990615 0.11694199 18.5142023 0.11694199 18.5142023 9.83480599 0.00950990615 9.83480599"></polygon>
        <polygon id="path-3" points="0.107773789 0 59.7166544 0 59.7166544 47.6818525 0.107773789 47.6818525"></polygon>
    </defs>
    <g id="↪️-Home" stroke="none" stroke-width="1" fill="none" fill-rule="evenodd">
        <g id="Home-null" transform="translate(-53.000000, -59.000000)">
            <g id="Group" transform="translate(53.000000, 59.000000)">
                <g id="Group-3" transform="translate(0.000000, 38.000000)">
                    <mask id="mask-2" fill="white">
                        <use xlink:href="#path-1"></use>
                    </mask>
                    <g id="Clip-2"></g>
                    <polyline id="Fill-1" fill="#283039" mask="url(#mask-2)" points="13.1872284 7.66623127 10.2981189 0.11694199 8.18676121 0.11694199 5.33759333 7.65639647 2.31883212 0.11694199 0 0.11694199 3.96087591 9.83480599 6.74379145 9.83480599 9.25789364 3.14391087 11.7971971 9.83480599 14.538903 9.83480599 18.5142023 0.11694199 16.1942607 0.11694199 13.1872284 7.66623127"></polyline>
                </g>
                <path d="M32.7288757,41.8572716 L25.2572275,41.8572716 C25.2989178,41.0685178 25.4921486,40.5375164 25.824016,40.3128133 C26.0344523,40.164329 26.5779141,39.9881719 27.9699042,39.9881719 L29.9877438,39.9881719 C31.4053767,39.9881719 31.9542979,40.1589525 32.1687048,40.3042743 C32.495609,40.5193314 32.6876818,41.0536536 32.7288757,41.8572716 Z M33.8346591,38.7746802 C33.1553733,38.2531666 31.9799407,38 30.2415248,38 L27.7437513,38 C25.9760529,38 24.7956573,38.2495296 24.1357276,38.7620298 C23.3712415,39.35233 23,40.449596 23,42.1164471 L23,48 L25.2487902,48 L25.2487902,43.8323187 L32.750548,43.8323187 L32.750548,48 L35,48 L35,42.1164471 C35,40.4907098 34.6080789,39.3659293 33.8346591,38.7746802 L33.8346591,38.7746802 Z" id="Fill-4" fill="#283039"></path>
                <polygon id="Fill-5" fill="#283039" points="43.384337 39.9881719 43.384337 48 45.6026105 48 45.6026105 39.9881719 50 39.9881719 50 38 39 38 39 39.9881719"></polygon>
                <g id="Group-9" transform="translate(6.000000, 0.000000)">
                    <mask id="mask-4" fill="white">
                        <use xlink:href="#path-3"></use>
                    </mask>
                    <g id="Clip-7"></g>
                    <polygon id="Fill-6" fill="#283039" mask="url(#mask-4)" points="48.8812161 39.5202014 53.1998661 39.5202014 53.1998661 47.6818525 55.3849863 47.6818525 55.3849863 39.5202014 59.7166544 39.5202014 59.7166544 37.4948502 48.8812161 37.4948502"></polygon>
                    <path d="M50.1409228,0.904666499 C47.3410567,-0.758560282 43.6721891,-0.0513868613 41.6863591,2.53293733 C40.1134132,4.57987415 39.9498025,7.22154543 40.9809683,9.36126856 L40.9782361,9.36352379 C40.9782361,9.36352379 42.1601554,11.8144677 40.4766356,13.582079 C39.4366303,14.3762396 38.1532981,14.8237402 36.8098574,14.8206796 L36.779321,14.8206796 L36.7487846,14.8206796 C35.2597335,14.8240624 33.8433269,14.2749157 32.7520525,13.3120967 C31.476274,11.8950113 32.2997924,9.88141958 32.2997924,9.88141958 L32.2993103,9.88109741 C32.9405746,8.81566574 33.2869216,7.55209665 33.2229559,6.20266801 C33.0668988,2.91841933 30.4259827,0.223589227 27.1521596,0.0136924239 C23.3653251,-0.229066197 20.2183084,2.777629 20.2183084,6.52097659 C20.2183084,7.81724641 20.5969598,9.02379059 21.2478671,10.0386408 L21.247385,10.0394463 C21.247385,10.0394463 22.0598138,12.1216612 20.5042255,13.4759225 C19.4412375,14.3370954 18.1027791,14.8239013 16.7000335,14.8206796 L16.6694971,14.8206796 L16.6389607,14.8206796 C14.9097971,14.8247068 13.2791536,14.083705 12.1415924,12.8144979 C12.1250385,12.7832469 11.4455233,11.4761842 12.151557,9.93699471 C12.2573093,9.76463126 12.3556687,9.5885628 12.4445456,9.40814498 C12.4504922,9.39912409 12.4548316,9.39042537 12.4607781,9.38124339 C12.4601353,9.38092122 12.4594924,9.38076013 12.4588495,9.38043796 C13.4535324,7.33382331 13.3537266,4.82166625 11.9625527,2.80743015 C10.0482421,0.0357613894 6.25337173,-0.816712811 3.34791402,0.881147747 C0.0745730931,2.79389882 -0.867394361,7.04177196 1.20827697,10.1491467 C2.66180942,12.3251145 5.1947231,13.3418978 7.61674145,12.9646313 C8.9318958,12.7597282 10.2515503,13.2956657 10.9897274,14.4057186 L10.9974419,14.4171558 C11.718583,15.5015958 11.7349762,16.8988674 11.07089,18.0193909 C10.4563048,19.0567934 10.1204045,20.2796073 10.1678162,21.5845759 C10.2878725,24.8995922 12.9430925,27.639849 16.2461662,27.8494236 C20.0310721,28.0894437 23.175678,25.0837151 23.175678,21.3416562 C23.175678,20.1641077 22.8625996,19.0606595 22.3176053,18.1073446 L22.3174446,18.1071835 C22.2722829,18.0280896 22.225514,17.9498012 22.1771379,17.8728014 C21.2232773,16.1317694 22.5617358,14.5510194 22.6649166,14.4334256 C23.7851202,13.5276315 25.2076341,13.0348653 26.6921851,13.0421143 C26.7027925,13.0421143 26.7135606,13.0421143 26.7243287,13.0421143 C26.7350968,13.0421143 26.7458649,13.0421143 26.756633,13.0421143 C28.261113,13.0347043 29.7016273,13.5413239 30.8282596,14.4704757 C30.9148865,14.5709942 32.1410031,16.0521923 31.0738365,18.2089907 C31.0433001,18.2642436 31.0146923,18.3204631 30.9859238,18.3768437 C30.9783701,18.3908583 30.9719413,18.4043896 30.9642269,18.4184042 C30.9643876,18.4184042 30.9645483,18.4184042 30.964709,18.4184042 C30.4894663,19.3651145 30.2361749,20.4429499 30.2776401,21.5845759 C30.3978571,24.8995922 33.0529164,27.639849 36.3561508,27.8494236 C40.1410567,28.0894437 43.2853412,25.0837151 43.2853412,21.3416562 C43.2853412,20.1225472 42.9512087,18.9820488 42.3700529,18.0063428 C41.7086989,16.8961289 41.7250921,15.5091669 42.440608,14.4334256 L42.4703409,14.3888044 C43.2030536,13.286967 44.5138686,12.7560232 45.8188977,12.9620539 C48.2251657,13.3420589 50.746347,12.3460559 52.209844,10.1944123 C54.3129981,7.1023408 53.4039778,2.84286937 50.1409228,0.904666499" id="Fill-8" fill="#283039" mask="url(#mask-4)"></path>
                </g>
            </g>
        </g>
    </g>
</svg>