<?xml version="1.0" encoding="UTF-8"?>
<svg width="120px" height="87px" viewBox="0 0 120 87" version="1.1" xmlns="http://www.w3.org/2000/svg" xmlns:xlink="http://www.w3.org/1999/xlink">
    <title>BA5BD317-C6C0-46D2-A2C2-1FB1ED1AD8CD@1x</title>
    <defs>
        <polygon id="path-1" points="0.0173734693 0.220353502 33.8232491 0.220353502 33.8232491 18.5317005 0.0173734693 18.5317005"></polygon>
        <polygon id="path-3" points="0.194170958 0 107.588683 0 107.588683 85.709115 0.194170958 85.709115"></polygon>
    </defs>
    <g id="↪️-All-screens" stroke="none" stroke-width="1" fill="none" fill-rule="evenodd">
        <g id="Register-mobile-number" transform="translate(-660.000000, -102.000000)">
            <g id="Group" transform="translate(660.000000, 102.000000)">
                <g id="Group-3" transform="translate(0.000000, 67.177414)">
                    <mask id="mask-2" fill="white">
                        <use xlink:href="#path-1"></use>
                    </mask>
                    <g id="Clip-2"></g>
                    <polyline id="Fill-1" fill="#283039" mask="url(#mask-2)" points="24.0915003 14.4454606 18.8134403 0.220353502 14.9562406 0.220353502 9.75114918 14.4269289 4.23623092 0.220353502 0 0.220353502 7.23604995 18.5317005 12.3201062 18.5317005 16.9130723 5.92406346 21.5520782 18.5317005 26.5608494 18.5317005 33.8232491 0.220353502 29.5849913 0.220353502 24.0915003 14.4454606"></polyline>
                </g>
                <path d="M58.0053809,74.4609519 L44.9280811,74.4609519 C45.0010496,73.0166375 45.3392532,72.0443023 45.9201062,71.6328407 C46.2884237,71.3609459 47.2396212,71.0383785 49.6759607,71.0383785 L53.2076974,71.0383785 C55.6889184,71.0383785 56.6496712,71.3511009 57.0249382,71.6172046 C57.5971044,72.0110032 57.9332811,72.9894191 58.0053809,74.4609519 Z M59.9407854,68.8163118 C58.751861,67.8613501 56.6945527,67.397768 53.6518791,67.397768 L49.2801351,67.397768 C46.1862098,67.397768 44.1202148,67.8546902 42.9651686,68.7931471 C41.6271219,69.8740665 40.9773542,71.8833082 40.9773542,74.9355372 L40.9773542,85.709115 L44.9133136,85.709115 L44.9133136,78.0775291 L58.043313,78.0775291 L58.043313,85.709115 L61.9804307,85.709115 L61.9804307,74.9355372 C61.9804307,71.9585932 61.2944682,69.8989685 59.9407854,68.8163118 L59.9407854,68.8163118 Z" id="Fill-4" fill="#283039"></path>
                <polygon id="Fill-5" fill="#283039" points="78.0039814 71.0383785 78.0039814 85.709115 81.9408096 85.709115 81.9408096 71.0383785 89.7449719 71.0383785 89.7449719 67.397768 70.2229837 67.397768 70.2229837 71.0383785"></polygon>
                <g id="Group-9" transform="translate(11.292755, 0.000000)">
                    <mask id="mask-4" fill="white">
                        <use xlink:href="#path-3"></use>
                    </mask>
                    <g id="Clip-7"></g>
                    <polygon id="Fill-6" fill="#283039" mask="url(#mask-4)" points="88.0669844 71.0383785 95.8476926 71.0383785 95.8476926 85.709115 99.7845207 85.709115 99.7845207 71.0383785 107.588683 71.0383785 107.588683 67.397768 88.0669844 67.397768"></polygon>
                    <path d="M90.3365386,1.62615672 C85.2921518,-1.36352778 78.6821258,-0.0923689449 75.1043494,4.55300718 C72.270447,8.23241841 71.9756771,12.9808771 73.8334801,16.8270737 L73.8285576,16.8311275 C73.8285576,16.8311275 75.9579659,21.2367497 72.9248477,24.4140677 C71.051119,25.8415877 68.7389998,26.6459794 66.318586,26.6404778 L66.26357,26.6404778 L66.208554,26.6404778 C63.5258008,26.6465585 60.9739277,25.6594559 59.0078301,23.9287688 C56.7093201,21.3815286 58.1930144,17.7620559 58.1930144,17.7620559 L58.1921457,17.7614767 C59.3474815,15.8463413 59.9714786,13.5750498 59.8562345,11.1494239 C59.5750739,5.24591904 54.8170598,0.401906256 48.918767,0.0246124148 C42.0962056,-0.411751222 36.4263739,4.99284551 36.4263739,11.7215902 C36.4263739,14.0516619 37.1085721,16.22045 38.2812813,18.0446643 L38.2804126,18.0461121 C38.2804126,18.0461121 39.7441274,21.7889365 36.9414973,24.2232491 C35.0263618,25.7712252 32.6149243,26.6462689 30.0876636,26.6404778 L30.0326476,26.6404778 L29.9776317,26.6404778 C26.8622791,26.6477167 23.9244254,25.3157507 21.8749352,23.0343247 C21.8451107,22.9781504 20.6208602,20.6286783 21.8928877,17.8619533 C22.0834168,17.5521264 22.2606262,17.2356397 22.4207516,16.911335 C22.4314653,16.8951197 22.4392833,16.8794836 22.449997,16.8629788 C22.4488388,16.8623997 22.4476805,16.8621102 22.4465223,16.861531 C24.2385956,13.1826989 24.0587802,8.6670447 21.5523677,5.04641371 C18.1034445,0.0642818363 11.2664053,-1.46805815 6.03177897,1.58388128 C0.134354829,5.02209085 -1.56274356,12.6577306 2.1768957,18.243301 C4.79565663,22.154648 9.35908789,23.982337 13.7227243,23.3041926 C16.0921759,22.935875 18.4697352,23.8992339 19.7996742,25.8945768 L19.813573,25.9151354 C21.112819,27.8644387 21.1423539,30.3760632 19.9459009,32.3902274 C18.8386318,34.2549798 18.233456,36.4530132 18.3188756,38.7987211 C18.5351752,44.7575315 23.31896,49.6831996 29.2699523,50.0599143 C36.089039,50.4913555 41.7545274,45.0884961 41.7545274,38.3620679 C41.7545274,36.2454003 41.1904687,34.2619292 40.2085782,32.548326 L40.2082886,32.5480364 C40.1269228,32.4058635 40.0426615,32.2651384 39.9555046,32.1267298 C38.2369789,28.9971889 40.6484165,26.155758 40.8343126,25.9443808 C42.8525306,24.3161971 45.4154069,23.4304398 48.0900525,23.4434699 C48.1091633,23.4434699 48.1285637,23.4434699 48.147964,23.4434699 C48.1673644,23.4434699 48.1867648,23.4434699 48.2061652,23.4434699 C50.9167159,23.4301502 53.5120227,24.3408096 55.541823,26.0109791 C55.6978947,26.1916631 57.9069313,28.8541473 55.9842674,32.731037 C55.9292514,32.8303553 55.8777101,32.931411 55.8258792,33.0327562 C55.81227,33.0579478 55.8006877,33.0822706 55.7867889,33.1074621 C55.7870785,33.1074621 55.787368,33.1074621 55.7876576,33.1074621 C54.9314351,34.8091935 54.475092,36.7466248 54.5497979,38.7987211 C54.7663872,44.7575315 59.5498824,49.6831996 65.5011643,50.0599143 C72.320251,50.4913555 77.9851602,45.0884961 77.9851602,38.3620679 C77.9851602,36.1706943 77.3831695,34.120625 76.3361284,32.3667732 C75.1445979,30.3711407 75.1741328,27.8780479 76.4632443,25.9443808 L76.5168125,25.8641733 C77.8369066,23.8835978 80.1985401,22.9292152 82.5497497,23.2995596 C86.8850094,23.9826265 91.4273029,22.1922905 94.0640164,18.3246667 C97.8531701,12.7666043 96.215431,5.11011643 90.3365386,1.62615672" id="Fill-8" fill="#283039" mask="url(#mask-4)"></path>
                </g>
            </g>
        </g>
    </g>
</svg>