<?xml version="1.0" encoding="UTF-8"?>
<svg width="15px" height="14px" viewBox="0 0 15 14" version="1.1" xmlns="http://www.w3.org/2000/svg" xmlns:xlink="http://www.w3.org/1999/xlink">
    <title>D71E693A-342D-4A6B-8016-F9A95DA2CDEB@1x</title>
    <g id="↪️-Home" stroke="none" stroke-width="1" fill="none" fill-rule="evenodd">
        <g id="Profile-no-image" transform="translate(-485.000000, -182.000000)" fill="#FFFFFF" fill-rule="nonzero">
            <g id="photo_camera-24px" transform="translate(485.000000, 182.000000)">
                <path d="M9.09,1.55555556 L10.4625,3.11111111 L13.5,3.11111111 L13.5,12.4444444 L1.5,12.4444444 L1.5,3.11111111 L4.5375,3.11111111 L5.91,1.55555556 L9.09,1.55555556 M9.75,0 L5.25,0 L3.8775,1.55555556 L1.5,1.55555556 C0.675,1.55555556 0,2.25555556 0,3.11111111 L0,12.4444444 C0,13.3 0.675,14 1.5,14 L13.5,14 C14.325,14 15,13.3 15,12.4444444 L15,3.11111111 C15,2.25555556 14.325,1.55555556 13.5,1.55555556 L11.1225,1.55555556 L9.75,0 Z M7.5,5.44444444 C8.7375,5.44444444 9.75,6.49444444 9.75,7.77777778 C9.75,9.06111111 8.7375,10.1111111 7.5,10.1111111 C6.2625,10.1111111 5.25,9.06111111 5.25,7.77777778 C5.25,6.49444444 6.2625,5.44444444 7.5,5.44444444 M7.5,3.88888889 C5.43,3.88888889 3.75,5.63111111 3.75,7.77777778 C3.75,9.92444444 5.43,11.6666667 7.5,11.6666667 C9.57,11.6666667 11.25,9.92444444 11.25,7.77777778 C11.25,5.63111111 9.57,3.88888889 7.5,3.88888889 Z" id="Shape"></path>
            </g>
        </g>
    </g>
</svg>