<?xml version="1.0" encoding="UTF-8"?>
<svg width="24px" height="24px" viewBox="0 0 24 24" version="1.1" xmlns="http://www.w3.org/2000/svg" xmlns:xlink="http://www.w3.org/1999/xlink">
    <title>D439CAB3-1063-4F01-A153-7D2E3650AE80@1x</title>
    <g id="↪️-Home" stroke="none" stroke-width="1" fill="none" fill-rule="evenodd">
        <g id="Home-null" transform="translate(-1293.000000, -50.000000)">
            <g id="receipt-24px" transform="translate(1293.000000, 50.000000)">
                <polygon id="Path" points="0 0 24 0 24 24 0 24"></polygon>
                <path d="M19.5,3.5 L18,2 L16.5,3.5 L15,2 L13.5,3.5 L12,2 L10.5,3.5 L9,2 L7.5,3.5 L6,2 L4.5,3.5 L3,2 L3,22 L4.5,20.5 L6,22 L7.5,20.5 L9,22 L10.5,20.5 L12,22 L13.5,20.5 L15,22 L16.5,20.5 L18,22 L19.5,20.5 L21,22 L21,2 L19.5,3.5 Z M19,19.09 L5,19.09 L5,4.91 L19,4.91 L19,19.09 Z M6,15 L18,15 L18,17 L6,17 L6,15 Z M6,11 L18,11 L18,13 L6,13 L6,11 Z M6,7 L18,7 L18,9 L6,9 L6,7 Z" id="Shape" fill="#283039" fill-rule="nonzero"></path>
            </g>
        </g>
    </g>
</svg>