<?xml version="1.0" encoding="UTF-8"?>
<svg width="24px" height="24px" viewBox="0 0 24 24" version="1.1" xmlns="http://www.w3.org/2000/svg" xmlns:xlink="http://www.w3.org/1999/xlink">
    <title>9E7B180F-7FCE-427B-8453-B91F3EC6F9C9@1x</title>
    <g id="↪️-Home" stroke="none" stroke-width="1" fill="none" fill-rule="evenodd">
        <g id="Employees-list" transform="translate(-989.000000, -389.000000)">
            <g id="remove_circle_outline-24px" transform="translate(989.000000, 389.000000)">
                <polygon id="Path" points="0 0 24 0 24 24 0 24"></polygon>
                <path d="M7,11 L7,13 L17,13 L17,11 L7,11 Z M12,2 C6.48,2 2,6.48 2,12 C2,17.52 6.48,22 12,22 C17.52,22 22,17.52 22,12 C22,6.48 17.52,2 12,2 Z M12,20 C7.59,20 4,16.41 4,12 C4,7.59 7.59,4 12,4 C16.41,4 20,7.59 20,12 C20,16.41 16.41,20 12,20 Z" id="Shape" fill="#FF7878" fill-rule="nonzero"></path>
            </g>
        </g>
    </g>
</svg>