<?xml version="1.0" encoding="UTF-8"?>
<svg width="24px" height="24px" viewBox="0 0 24 24" version="1.1" xmlns="http://www.w3.org/2000/svg" xmlns:xlink="http://www.w3.org/1999/xlink">
    <title>7C2E88B8-DC32-4495-93CC-CA506912421F@1x</title>
    <g id="↪️-Home" stroke="none" stroke-width="1" fill="none" fill-rule="evenodd">
        <g id="Employees-list" transform="translate(-436.000000, -226.000000)">
            <g id="person_add_alt-24px" transform="translate(436.000000, 226.000000)">
                <rect id="Rectangle" x="0" y="0" width="24" height="24"></rect>
                <path d="M20,9 L20,6 L18,6 L18,9 L15,9 L15,11 L18,11 L18,14 L20,14 L20,11 L23,11 L23,9 L20,9 Z M9,12 C11.21,12 13,10.21 13,8 C13,5.79 11.21,4 9,4 C6.79,4 5,5.79 5,8 C5,10.21 6.79,12 9,12 Z M9,6 C10.1,6 11,6.9 11,8 C11,9.1 10.1,10 9,10 C7.9,10 7,9.1 7,8 C7,6.9 7.9,6 9,6 Z M15.39,14.56 C13.71,13.7 11.53,13 9,13 C6.47,13 4.29,13.7 2.61,14.56 C1.61,15.07 1,16.1 1,17.22 L1,20 L17,20 L17,17.22 C17,16.1 16.39,15.07 15.39,14.56 Z M15,18 L3,18 L3,17.22 C3,16.84 3.2,16.5 3.52,16.34 C4.71,15.73 6.63,15 9,15 C11.37,15 13.29,15.73 14.48,16.34 C14.8,16.5 15,16.84 15,17.22 L15,18 Z" id="Shape" fill="#283039" fill-rule="nonzero"></path>
            </g>
        </g>
    </g>
</svg>