<svg width="16" height="16" viewBox="0 0 16 16" fill="none" xmlns="http://www.w3.org/2000/svg">
<path fill-rule="evenodd" clip-rule="evenodd" d="M8 0C3.584 0 0 3.584 0 8C0 12.416 3.584 16 8 16C12.416 16 16 12.416 16 8C16 3.584 12.416 0 8 0ZM4 7.20007V8.80007H12V7.20007H4ZM1.59987 7.99987C1.59987 11.5279 4.47187 14.3999 7.99987 14.3999C11.5279 14.3999 14.3999 11.5279 14.3999 7.99987C14.3999 4.47187 11.5279 1.59987 7.99987 1.59987C4.47187 1.59987 1.59987 4.47187 1.59987 7.99987Z" fill="#283039"/>
</svg>
